<?xml version="1.0" encoding="UTF-8" standalone="no"?>
<!-- Generator: Adobe Illustrator 16.0.0, SVG Export Plug-In . SVG Version: 6.00 Build 0)  -->
<svg fill="white" xmlns:dc="http://purl.org/dc/elements/1.1/" xmlns:cc="http://creativecommons.org/ns#"
    xmlns:rdf="http://www.w3.org/1999/02/22-rdf-syntax-ns#" xmlns:svg="http://www.w3.org/2000/svg"
    xmlns="http://www.w3.org/2000/svg" xmlns:sodipodi="http://sodipodi.sourceforge.net/DTD/sodipodi-0.dtd"
    xmlns:inkscape="http://www.inkscape.org/namespaces/inkscape" version="1.1" id="Capa_1" x="0px" y="0px" width="510px"
    height="510px" viewBox="0 0 510 510" style="enable-background:new 0 0 510 510;" xml:space="preserve"
    inkscape:version="0.91 r13725" sodipodi:docname="notification_logo.svg">
    <metadata id="metadata42">
        <rdf:RDF>
            <cc:Work rdf:about="">
                <dc:format>image/svg+xml</dc:format>
                <dc:type rdf:resource="http://purl.org/dc/dcmitype/StillImage" />
            </cc:Work>
        </rdf:RDF>
    </metadata>
    <defs id="defs40" />
    <sodipodi:namedview pagecolor="#ffffff" bordercolor="#666666" borderopacity="1" objecttolerance="10"
        gridtolerance="10" guidetolerance="10" inkscape:pageopacity="0" inkscape:pageshadow="2"
        inkscape:window-width="1920" inkscape:window-height="1145" id="namedview38" showgrid="false"
        inkscape:zoom="0.4627451" inkscape:cx="-282.01271" inkscape:cy="255" inkscape:window-x="0"
        inkscape:window-y="27" inkscape:window-maximized="1" inkscape:current-layer="Capa_1" />
    <g id="g3" transform="matrix(0.87658593,0,0,0.87658593,31.470588,31.470588)">
        <g id="notifications">
            <path
                d="m 255,510 c 28.05,0 51,-22.95 51,-51 l -102,0 c 0,28.05 22.95,51 51,51 z m 165.75,-153 0,-140.25 C 420.75,137.7 367.2,73.95 293.25,56.1 l 0,-17.85 C 293.25,17.85 275.4,0 255,0 234.6,0 216.75,17.85 216.75,38.25 l 0,17.85 C 142.8,73.95 89.25,137.7 89.25,216.75 l 0,140.25 -51,51 0,25.5 433.5,0 0,-25.5 -51,-51 z"
                id="path6" inkscape:connector-curvature="0" />
        </g>
    </g>
    <g id="g8" />
    <g id="g10" />
    <g id="g12" />
    <g id="g14" />
    <g id="g16" />
    <g id="g18" />
    <g id="g20" />
    <g id="g22" />
    <g id="g24" />
    <g id="g26" />
    <g id="g28" />
    <g id="g30" />
    <g id="g32" />
    <g id="g34" />
    <g id="g36" />
</svg>